<svg width="80" height="80" viewBox="0 0 80 80" fill="none" xmlns="http://www.w3.org/2000/svg">
<rect width="80" height="80" fill="black"/>
<circle cx="40" cy="40" r="30.5" fill="black" stroke="#78FAAA" stroke-width="3"/>
<path d="M19.7576 52.8V27.9757H36.4848V32.303H25.0061V38.2181H35.6242V42.5454H25.0061V48.4727H36.5333V52.8H19.7576Z" fill="#78FAAA"/>
<path d="M41.0909 52.8V27.9757H51.0303C52.8566 27.9757 54.3798 28.2464 55.6 28.7878C56.8202 29.3292 57.7374 30.0808 58.3515 31.0424C58.9657 31.9959 59.2727 33.0949 59.2727 34.3393C59.2727 35.309 59.0788 36.1616 58.6909 36.8969C58.303 37.6242 57.7697 38.2222 57.0909 38.6909C56.4202 39.1515 55.6525 39.4787 54.7879 39.6727V39.9151C55.7333 39.9555 56.6182 40.2222 57.4424 40.7151C58.2747 41.208 58.9495 41.8989 59.4667 42.7878C59.9838 43.6686 60.2424 44.7191 60.2424 45.9393C60.2424 47.2565 59.9151 48.4323 59.2606 49.4666C58.6141 50.4929 57.6566 51.305 56.3879 51.903C55.1192 52.501 53.5555 52.8 51.697 52.8H41.0909ZM46.3394 48.509H50.6182C52.0808 48.509 53.1475 48.2303 53.8182 47.6727C54.4889 47.107 54.8242 46.3555 54.8242 45.4181C54.8242 44.7313 54.6586 44.1252 54.3273 43.6C53.996 43.0747 53.5232 42.6626 52.9091 42.3636C52.303 42.0646 51.5798 41.9151 50.7394 41.9151H46.3394V48.509ZM46.3394 38.3636H50.2303C50.9495 38.3636 51.5879 38.2383 52.1454 37.9878C52.7111 37.7292 53.1555 37.3656 53.4788 36.8969C53.8101 36.4282 53.9757 35.8666 53.9757 35.2121C53.9757 34.3151 53.6566 33.5919 53.0182 33.0424C52.3879 32.4929 51.4909 32.2181 50.3273 32.2181H46.3394V38.3636Z" fill="white"/>
</svg>
